# xmcd
#
# Track frame offsets:
#	150
#	17375
#	27629
#	47133
#	61020
#	73486
#	88783
#	103638
#	111481
#	128718
#	138692
#	151707
#	177201
#	190441
#	203481
#	224169
#	237999
#	250049
#	260986
#	271641
#	283048
#	302064
#
# Disc length: 4175 seconds
#
# Revision: 0
# Processed by: cddbd v1.4PL0 Copyright (c) Steve Scherf et al.
# Submitted via: EasyCDDAExtractor 5.0.5.1
#
DISCID=4d104d16
DTITLE=Various Artist - mo'mod jazz
DYEAR=1900
DGENRE=Jazz
TTITLE0=Johnny Griffin Orchestra - Wade In The Water
TTITLE1=Johnny Gilliam - Mission Impossible
TTITLE2=Various Artist - Money (That's What I Want)
TTITLE3=Booker T&The MGs - Soul Jam
TTITLE4=Billy Hawks - got My Mojo Working
TTITLE5=Junior Wells - (I Got a)Stomach Ache
TTITLE6=Lightnin'hopkins - Got To Move Your Baby
TTITLE7=Mose Allison - Evesight To The Blind
TTITLE8=Pucho&His Latin Soul Brothers - Georgia On My Mind
TTITLE9=Mongo Santamaria Orchestra - Get The Money
TTITLE10=Brown Brothers Of Soul - Cholo
TTITLE11=Johnny Lytle Trio - Blue Vibes
TTITLE12=Googie Rene Combo - Smokey Joe's LaLa
TTITLE13=Freddie McCOY - Spider Man
TTITLE14=Richard"Groove"Holmes - Livin' Soul
TTITLE15=Boogaloo Joe Jones - Right On
TTITLE16=Merl Saunders - My Train
TTITLE17=Chris Columbo - You Can't Sit Down
TTITLE18=B.B.King - Bad Luck Soul
TTITLE19=Little Johnny Taylor - You Win,I Lose
TTITLE20=Willis Jackson - Brother Ray
TTITLE21=Mark Murphy - Senor Blues
EXTD=
EXTT0=
EXTT1=
EXTT2=
EXTT3=
EXTT4=
EXTT5=
EXTT6=
EXTT7=
EXTT8=
EXTT9=
EXTT10=
EXTT11=
EXTT12=
EXTT13=
EXTT14=
EXTT15=
EXTT16=
EXTT17=
EXTT18=
EXTT19=
EXTT20=
EXTT21=
PLAYORDER=
